<?xml version="1.0" standalone="no"?>
<!DOCTYPE svg PUBLIC "-//W3C//DTD SVG 20010904//EN"
 "http://www.w3.org/TR/2001/REC-SVG-20010904/DTD/svg10.dtd">
<svg version="1.0" xmlns="http://www.w3.org/2000/svg"
 width="512.000000pt" height="512.000000pt" viewBox="0 0 512.000000 512.000000"
 preserveAspectRatio="xMidYMid meet">
<metadata>
Created by potrace 1.16, written by Peter Selinger 2001-2019
</metadata>
<g transform="translate(0.000000,512.000000) scale(0.100000,-0.100000)"
fill="#6f69d5" stroke="none">
<path d="M582 5115 c7 -7 399 -155 638 -240 323 -115 556 -188 1170 -364 173
-50 448 -134 611 -187 l296 -97 274 183 c461 308 543 370 852 642 42 37 71 68
63 68 -7 0 -72 -51 -144 -114 -287 -250 -255 -227 -943 -694 l-106 -72 -209
70 c-222 75 -402 130 -924 285 -549 163 -994 314 -1503 510 -36 14 -86 21 -75
10z"/>
<path d="M3834 5018 c-49 -57 -149 -168 -222 -248 -212 -230 -231 -261 -41
-65 206 212 333 348 360 387 16 22 17 28 6 28 -8 0 -55 -46 -103 -102z"/>
<path d="M3929 4962 c-228 -246 -239 -264 -31 -52 105 107 191 198 192 203 1
20 -26 -6 -161 -151z"/>
<path d="M4480 5027 c-111 -107 -351 -330 -398 -369 l-32 -27 2 -98 2 -98 3
86 c3 76 6 87 23 92 19 5 20 -1 20 -130 0 -77 4 -133 9 -131 5 2 91 66 191
143 205 158 454 347 673 513 125 94 144 112 121 112 -17 0 -39 -11 -56 -27
l-28 -27 0 27 c0 15 -4 27 -10 27 -5 0 -10 -12 -10 -26 0 -29 -16 -64 -30 -64
-6 0 -10 20 -10 45 l0 45 -145 0 -145 0 0 -169 c0 -143 -2 -170 -15 -175 -9
-3 -18 0 -21 8 -3 7 -4 86 -2 175 2 88 0 161 -4 161 -5 0 -8 -81 -8 -179 0
-150 -2 -180 -15 -185 -13 -5 -15 18 -15 167 0 121 4 177 12 185 9 9 9 12 -2
12 -8 0 -58 -42 -110 -93z m390 10 c0 -68 -10 -97 -32 -97 -10 0 -11 154 -1
163 3 4 12 7 20 7 10 0 13 -19 13 -73z m-67 -125 c-17 -12 -18 -8 -21 53 -2
50 1 70 15 89 18 24 18 23 21 -52 2 -64 0 -79 -15 -90z m-36 51 c-2 -16 -4 -3
-4 27 0 30 2 43 4 28 2 -16 2 -40 0 -55z m-27 -107 c-7 -7 -10 13 -10 66 0
109 14 132 18 29 2 -49 -1 -88 -8 -95z m-180 15 l0 -149 -35 -26 -35 -27 0
164 c0 160 1 164 23 175 46 22 47 21 47 -137z m140 -35 c-7 -7 -10 11 -10 60
0 92 14 106 18 18 2 -38 -2 -72 -8 -78z m-402 -212 c2 -90 1 -102 -18 -119
-20 -18 -20 -18 -20 97 0 63 3 118 7 122 20 19 28 -8 31 -100z m-118 -59 c0
-134 -1 -145 -20 -155 -20 -10 -20 -8 -20 138 0 82 3 152 7 155 3 4 12 7 20 7
10 0 13 -31 13 -145z m70 37 c0 -102 -7 -132 -32 -132 -10 0 -11 224 -1 233 3
4 12 7 20 7 10 0 13 -25 13 -108z m-133 -164 c-1 -40 -3 -8 -3 72 0 80 2 112
3 73 2 -40 2 -106 0 -145z"/>
<path d="M4929 4902 c-190 -143 -361 -271 -507 -380 -108 -81 -343 -242 -353
-242 -4 0 -10 21 -12 48 -2 26 -5 -63 -7 -198 -5 -347 -4 -340 -26 -340 -15 0
-16 19 -12 198 l5 197 -351 -175 c-300 -150 -351 -179 -356 -200 -3 -14 -4
-92 -2 -173 3 -109 7 -147 15 -143 7 3 145 57 307 121 325 127 505 213 743
354 l157 93 0 204 0 203 30 16 30 15 2 -206 3 -206 97 65 c199 133 428 301
428 315 0 14 -13 9 -42 -16 -17 -14 -18 -6 -18 151 l0 165 30 14 30 13 0 122
c0 68 -2 123 -4 123 -2 0 -86 -62 -187 -138z m105 -234 c3 -50 6 -124 6 -164
0 -69 -1 -73 -32 -100 l-33 -27 -7 54 c-3 30 -6 111 -7 181 l-1 126 28 10 c15
6 30 11 33 11 3 1 9 -40 13 -91z m-344 -3 c0 -8 -40 -47 -90 -86 l-90 -71 0
-219 0 -219 -40 -25 c-22 -14 -42 -25 -45 -25 -3 0 -5 94 -5 208 0 115 -3 211
-6 214 -3 3 -78 -45 -167 -106 -202 -140 -187 -131 -179 -103 5 16 58 59 167
132 87 59 221 155 298 212 76 56 142 103 148 103 5 0 9 -7 9 -15z m70 -258 l0
-193 -30 -17 -30 -18 0 195 c0 190 1 195 22 210 12 9 26 16 30 16 5 0 8 -87 8
-193z m-84 -244 c-3 -6 -19 -19 -35 -28 l-31 -16 0 195 0 194 33 19 32 19 3
-185 c1 -102 0 -191 -2 -198z m264 228 c0 -24 -10 -35 -65 -71 -67 -44 -85
-45 -85 -5 0 18 16 34 67 68 37 25 71 43 75 41 5 -3 8 -18 8 -33z m-796 -220
c3 -5 -3 -35 -13 -67 l-19 -59 -1 61 c-1 33 2 64 6 67 9 10 21 9 27 -2z m-39
-143 c8 -170 7 -186 -22 -206 l-23 -14 0 181 c0 171 1 181 19 181 17 0 20 -12
26 -142z m265 83 c0 -14 -21 -31 -72 -58 -116 -62 -130 -67 -126 -46 3 15 168
121 191 123 4 0 7 -9 7 -19z m-370 -167 c0 -90 -2 -164 -4 -164 -2 0 -11 -3
-20 -6 -14 -5 -16 13 -16 164 0 166 5 191 33 175 4 -2 7 -78 7 -169z m-130
-44 c0 -153 -2 -180 -15 -180 -13 0 -15 26 -15 174 0 167 1 177 28 185 1 1 2
-80 2 -179z m490 147 c0 -18 -16 -30 -85 -65 -96 -47 -105 -49 -105 -24 0 12
28 32 91 65 50 26 92 47 95 47 2 0 4 -10 4 -23z m-425 -146 c-5 -107 -11 -151
-20 -155 -10 -3 -14 27 -17 132 -4 127 -3 139 15 159 11 13 22 21 25 18 2 -2
1 -71 -3 -154z m-195 -61 c0 -107 -4 -170 -10 -170 -6 0 -10 63 -10 170 0 107
4 170 10 170 6 0 10 -63 10 -170z m630 158 c0 -7 -45 -39 -100 -70 -97 -55
-100 -56 -100 -32 0 20 13 30 93 68 104 50 107 51 107 34z m-544 -285 c-3 -7
-12 -13 -21 -13 -13 0 -15 21 -15 139 0 125 2 140 18 143 15 3 17 -9 20 -126
1 -72 0 -136 -2 -143z m-156 43 c0 -59 -4 -108 -10 -111 -6 -4 -10 26 -10 82
0 48 -3 98 -6 111 -5 16 -2 22 10 22 14 0 16 -15 16 -104z m-240 -55 c0 -127
-2 -150 -16 -155 -9 -3 -17 -6 -20 -6 -6 0 -4 292 2 302 3 4 12 8 20 8 11 0
14 -26 14 -149z m160 125 c0 -18 -17 -37 -70 -76 -61 -45 -78 -60 -67 -60 1 0
29 20 62 45 33 25 63 45 68 45 4 0 7 -37 7 -83 l0 -83 -67 -25 c-37 -13 -71
-25 -75 -27 -14 -6 -9 196 5 209 9 8 109 66 135 78 1 0 2 -10 2 -23z m-222
-297 c-10 -7 -14 22 -16 138 -2 111 1 148 10 154 10 7 14 -22 16 -138 2 -111
-1 -148 -10 -154z"/>
<path d="M4474 4315 c0 -104 2 -146 3 -92 2 54 2 139 0 190 -1 51 -3 7 -3 -98z"/>
<path d="M553 4920 l-23 -9 0 -2106 c0 -1328 4 -2105 10 -2105 14 0 1004 270
1009 276 2 2 1 4 -3 4 -11 0 -275 -69 -654 -172 -184 -49 -337 -87 -340 -83
-4 3 -8 944 -11 2090 l-3 2084 33 6 c26 5 63 -5 164 -44 135 -51 415 -162 570
-226 177 -73 742 -297 884 -351 180 -69 190 -73 168 -85 -11 -6 -38 -1 -84 17
-37 14 -122 45 -188 69 -66 23 -255 95 -420 158 -165 63 -352 133 -415 155
-64 22 -192 69 -285 105 -94 36 -212 81 -262 100 l-93 35 0 -1628 0 -1628 38
8 c20 5 195 32 387 61 391 58 363 48 446 152 34 42 39 56 39 98 0 29 8 65 19
87 10 20 33 74 51 120 18 45 36 82 40 82 3 0 19 -14 36 -31 33 -35 118 -80
245 -129 l85 -34 21 -55 c11 -31 30 -82 42 -115 12 -32 20 -60 18 -62 -10 -10
-198 128 -276 201 -46 44 -81 73 -76 65 30 -53 86 -117 174 -194 108 -95 117
-114 82 -157 l-18 -23 -64 31 c-186 90 -298 112 -374 74 -34 -17 -36 -19 -10
-13 55 13 138 6 185 -16 l45 -20 -48 -1 c-70 -1 -49 -17 30 -23 49 -4 85 -14
128 -35 33 -17 79 -36 102 -43 l42 -13 -26 -31 c-38 -45 -53 -88 -53 -149 0
-92 47 -187 93 -187 12 0 28 -4 36 -9 11 -7 4 -12 -24 -20 -51 -14 -89 7 -129
72 -53 86 -46 184 19 252 21 23 27 35 17 35 -42 0 -102 -105 -102 -179 0 -41
31 -120 65 -165 31 -41 30 -42 -63 -49 -82 -7 -187 7 -287 38 -92 28 -130 53
-148 97 -10 24 -11 1 -9 -136 3 -111 0 -166 -7 -166 -6 0 -12 34 -14 83 l-3
82 -2 -87 c-2 -87 -2 -88 -27 -88 -24 0 -25 3 -27 58 l-2 57 -6 -70 c-5 -55
-7 -37 -8 85 -2 94 -8 178 -17 215 -20 85 -20 201 1 209 31 12 34 5 36 -76 2
-81 2 -82 6 -18 l3 65 24 -58 c13 -32 21 -65 18 -74 -4 -10 -2 -14 4 -10 6 4
18 -12 29 -34 31 -70 44 -74 250 -74 l183 0 14 -29 c7 -16 16 -25 19 -20 4 5
-6 29 -20 53 -14 24 -28 39 -30 33 -2 -8 -39 -12 -115 -12 -135 0 -223 13
-250 37 -23 21 -77 133 -102 215 -18 55 -18 57 3 91 l20 35 -31 -9 c-53 -15
-372 -76 -554 -105 l-173 -28 0 -373 c0 -327 2 -373 15 -373 9 0 156 38 328
84 249 68 746 195 865 221 14 3 22 13 22 25 0 11 7 20 15 20 9 0 15 -9 15 -23
0 -15 -18 -36 -55 -66 -31 -25 -106 -96 -167 -159 l-111 -115 -93 -18 c-110
-21 -132 -31 -140 -65 -8 -32 2 -113 17 -130 7 -9 7 -19 0 -33 -22 -41 -13
-89 25 -131 l36 -40 -55 -175 c-47 -152 -52 -175 -37 -175 10 0 20 10 23 22
17 77 126 409 167 510 45 111 47 121 30 125 -17 4 -12 13 33 66 166 194 311
324 407 363 34 14 72 32 84 40 20 12 32 11 122 -19 96 -31 104 -32 272 -32
190 0 177 6 172 -70 -4 -79 -4 -79 -157 -15 -129 53 -299 107 -309 97 -3 -2
33 -15 78 -27 92 -26 291 -109 350 -146 l38 -24 0 -86 c0 -102 15 -207 41
-282 22 -64 22 -62 10 -62 -4 0 -29 48 -55 106 -73 166 -165 283 -269 343 -38
22 -36 19 26 -39 38 -34 86 -89 108 -122 48 -70 143 -262 137 -278 -2 -6 -35
41 -73 105 -119 199 -202 291 -334 368 -51 30 -35 13 42 -46 137 -105 140
-111 32 -57 -103 51 -151 67 -79 27 143 -83 220 -154 311 -292 92 -138 94
-146 32 -93 -123 104 -326 221 -465 267 -115 39 -155 40 -54 2 151 -56 255
-118 415 -247 87 -71 128 -114 154 -162 15 -28 16 -26 -117 -205 -52 -70 -92
-130 -90 -132 3 -3 129 -4 281 -3 l277 3 -50 87 c-78 137 -76 153 12 61 40
-43 86 -95 102 -115 25 -34 57 -51 56 -30 -1 4 -30 43 -65 87 -35 44 -92 120
-125 169 -55 81 -59 90 -46 105 47 52 168 79 441 101 l120 9 -160 -5 c-88 -2
-178 -6 -200 -10 -63 -9 178 92 288 120 103 27 87 34 -25 11 -82 -18 -234 -68
-382 -127 -54 -21 -100 -37 -103 -35 -2 3 15 21 38 41 48 40 179 110 287 151
39 16 71 30 69 31 -2 2 -45 -8 -97 -21 -92 -25 -215 -79 -298 -131 l-43 -27
23 39 c34 61 176 196 243 232 79 44 30 30 -60 -16 -84 -44 -178 -134 -225
-216 -18 -33 -35 -55 -37 -49 -2 5 7 48 21 95 14 50 27 128 32 190 l7 105 100
28 c56 16 96 30 89 33 -6 2 -45 -6 -87 -17 -41 -12 -80 -21 -85 -21 -6 0 -10
42 -10 104 l0 105 43 5 c46 6 238 24 360 33 54 4 77 3 77 -6 0 -7 21 -11 59
-11 57 0 59 -1 108 -53 28 -29 58 -67 66 -84 14 -27 39 -113 33 -113 -2 0 -19
24 -39 52 -20 29 -60 76 -89 103 -55 52 -51 46 24 -45 56 -68 146 -205 186
-285 71 -143 150 -395 208 -662 4 -22 8 -23 114 -23 126 0 119 -6 95 98 -30
129 -56 422 -70 797 -10 258 -30 297 -190 360 -170 68 -305 137 -305 157 0 29
64 23 212 -22 127 -38 295 -76 304 -68 2 2 -40 15 -92 27 -53 13 -143 38 -201
55 l-104 32 60 17 c58 16 69 16 338 -12 685 -73 922 -92 876 -72 -23 10 -338
64 -448 76 -33 4 -131 25 -217 46 -96 24 -197 42 -260 47 l-103 8 54 13 c39
10 65 25 93 53 l40 40 61 -19 c48 -14 77 -17 127 -11 36 4 144 7 240 8 151 1
211 -3 433 -34 143 -20 261 -36 263 -36 2 0 4 20 4 45 0 33 -4 45 -15 45 -13
0 -15 47 -15 360 0 313 2 360 15 360 12 0 15 13 15 59 l0 60 -68 -20 c-127
-37 -621 -169 -632 -169 -11 0 -14 39 -4 64 3 9 17 16 30 16 78 0 674 181 674
205 0 12 -5 12 -40 0 -22 -8 -40 -12 -40 -9 0 3 18 84 40 179 22 95 40 195 39
222 -1 38 -12 3 -58 -179 -31 -125 -60 -231 -66 -236 -13 -13 -85 -35 -91 -29
-8 8 17 137 27 137 5 0 9 -10 9 -22 0 -42 10 -10 60 188 28 109 53 206 56 216
2 9 18 21 34 27 30 10 30 11 30 85 0 50 -4 76 -12 79 -10 3 -10 9 0 26 11 19
18 91 8 91 -2 0 -20 -7 -41 -16 -20 -8 -39 -13 -41 -11 -3 2 16 12 41 21 l45
18 0 114 0 113 -72 -33 c-40 -18 -132 -61 -204 -94 -108 -50 -137 -59 -164
-53 -26 5 -30 9 -19 18 23 18 434 233 447 233 7 0 12 5 12 10 0 6 -5 10 -10
10 -6 0 -115 -54 -243 -119 -226 -117 -590 -278 -872 -388 -349 -135 -323
-127 -352 -114 -15 7 -22 16 -17 20 5 5 81 36 169 69 88 33 221 86 295 117
195 81 1030 496 1030 512 0 18 0 18 -100 -32 l-90 -45 0 54 0 54 95 51 95 52
0 214 c0 118 -2 215 -5 215 -3 0 -94 -60 -203 -134 -202 -137 -391 -245 -721
-411 -204 -102 -335 -156 -588 -245 -327 -114 -309 -107 -301 -115 4 -4 215
68 442 151 22 8 41 13 43 10 5 -5 -140 -65 -317 -131 l-155 -57 3 -119 c2 -78
0 -119 -7 -119 -22 0 -24 66 -18 513 7 507 0 461 70 502 l27 16 0 -134 c0
-111 -3 -136 -15 -141 -13 -5 -15 11 -15 109 0 93 -3 113 -14 109 -10 -4 -15
-37 -18 -127 -3 -67 -4 -123 -3 -125 2 -3 438 211 580 286 39 20 80 41 92 47
23 10 23 13 23 203 0 140 -3 192 -12 192 -6 0 -127 -76 -267 -168 -141 -93
-302 -197 -358 -233 l-102 -64 -3 -492 -3 -491 -95 31 -94 32 -59 78 c-55 73
-60 77 -97 77 -33 0 -40 4 -40 19 0 10 7 21 14 24 8 3 23 21 33 39 17 32 18
59 13 268 0 19 1 85 2 145 3 101 1 115 -24 167 -30 64 -65 89 -133 93 -31 2
-49 11 -76 38 -66 66 -170 80 -287 41 l-43 -15 -267 105 c-147 58 -395 157
-552 221 -552 225 -959 385 -977 384 -10 0 -28 -4 -40 -9z m312 -331 c115 -39
218 -75 228 -80 18 -10 23 -34 7 -44 -5 -3 -113 29 -240 72 -208 71 -230 80
-230 101 0 12 5 22 12 22 7 0 107 -32 223 -71z m385 -18 c80 -26 249 -87 375
-134 127 -48 335 -124 463 -170 195 -70 231 -85 218 -96 -18 -15 -84 6 -536
175 -168 62 -393 144 -500 182 -176 62 -235 92 -183 92 10 0 84 -22 163 -49z
m-603 -228 c-1 -43 -3 -8 -3 77 0 85 2 120 3 78 2 -43 2 -113 0 -155z m57 221
c14 -5 16 -29 16 -156 0 -149 0 -149 -22 -146 -23 3 -23 6 -26 156 -3 151 -1
159 32 146z m312 -99 c129 -41 236 -75 239 -75 3 0 5 -13 5 -30 0 -16 -3 -30
-7 -29 -5 0 -114 31 -243 68 l-235 68 -3 37 c-2 20 0 36 3 36 4 0 112 -34 241
-75z m2982 -77 c-2 -102 -6 -143 -15 -146 -10 -3 -13 25 -13 118 0 115 -1 122
-17 109 -17 -13 -17 -12 -2 6 9 11 19 28 22 38 4 9 11 17 17 17 7 0 10 -47 8
-142z m-100 -45 c-2 -98 -6 -138 -15 -141 -10 -3 -13 28 -13 131 0 73 3 137 7
140 19 20 23 -5 21 -130z m-2467 107 c5 0 10 -105 11 -236 l3 -236 195 -74
c107 -41 219 -86 249 -100 29 -14 56 -23 58 -20 3 3 -6 11 -21 17 l-26 12 0
229 c0 158 3 228 11 228 6 0 24 -9 40 -21 16 -11 30 -17 31 -12 1 4 5 -62 8
-147 4 -124 2 -160 -9 -178 -9 -14 -15 -52 -15 -92 -1 -62 2 -72 30 -107 29
-35 35 -38 84 -39 44 -1 55 -5 61 -21 7 -19 4 -20 -39 -15 -68 7 -117 27 -114
44 3 18 -12 31 -53 46 -16 6 -131 49 -255 96 -124 47 -226 86 -227 86 -2 0 -3
-103 -3 -230 0 -242 0 -241 -44 -224 -14 5 -16 35 -16 228 0 121 -3 231 -6
243 -5 19 -48 43 -75 43 -5 0 -9 -94 -9 -209 0 -204 0 -209 -20 -204 -11 3
-20 10 -20 15 0 5 -4 7 -9 3 -10 -5 -96 12 -303 61 -89 21 -108 29 -108 44 0
10 4 21 8 24 5 3 51 -6 103 -19 136 -35 300 -68 307 -61 3 3 0 6 -6 6 -9 0
-12 45 -12 160 0 147 2 161 19 172 17 10 1 16 -112 45 -73 18 -204 49 -292 68
-225 50 -225 51 -225 86 0 36 7 37 130 3 52 -14 115 -29 140 -34 71 -13 26 13
-70 40 -57 17 -80 28 -84 42 -3 15 -1 18 12 13 19 -9 173 -55 181 -55 20 0
-28 22 -97 45 -77 25 -99 40 -90 64 1 5 34 0 73 -10 39 -10 71 -19 73 -19 1 0
2 4 2 8 0 5 -25 14 -55 21 -30 7 -57 17 -60 22 -12 18 44 9 152 -25 59 -19
147 -46 196 -61 70 -21 87 -30 87 -46 0 -10 -1 -19 -3 -19 -2 0 -37 11 -77 25
-40 14 -75 23 -77 21 -2 -2 34 -16 79 -33 74 -26 83 -32 86 -56 2 -15 0 -27
-5 -27 -23 0 -117 35 -181 66 -40 20 -75 35 -76 33 -7 -8 -17 -49 -12 -49 3 0
100 -27 214 -60 115 -33 211 -60 214 -60 3 0 5 33 4 73 0 39 0 141 2 226 2
135 4 152 18 147 9 -3 20 -6 25 -6z m2408 -135 c1 -125 0 -145 -14 -145 -14 0
-15 20 -14 145 1 113 4 145 14 145 10 0 13 -32 14 -145z m-69 -35 c0 -87 -4
-140 -10 -140 -6 0 -11 51 -12 128 l-2 127 -6 -135 -6 -135 -4 135 -4 135 -6
-145 -6 -145 -2 146 c-2 150 2 169 40 169 16 0 18 -12 18 -140z m-2400 -70 c0
-152 -1 -160 -19 -160 -11 0 -31 4 -45 10 l-26 10 0 127 c0 167 2 173 51 173
l39 0 0 -160z m2290 15 c0 -90 -4 -145 -10 -145 -6 0 -11 54 -12 138 l-1 137
-13 -150 -12 -150 2 132 c1 84 -2 134 -9 137 -10 5 31 46 46 46 5 0 9 -65 9
-145z m-2160 75 c0 -5 7 -10 15 -10 9 0 44 -12 78 -26 34 -15 72 -30 85 -35
l23 -9 -19 -28 c-11 -15 -38 -48 -61 -74 -40 -45 -43 -46 -68 -33 -14 8 -30
20 -34 27 -5 8 -9 -10 -9 -44 0 -44 3 -58 15 -58 8 0 65 -22 127 -49 62 -27
126 -53 141 -56 29 -8 39 -45 12 -45 -8 0 -15 5 -15 10 0 6 -6 10 -13 10 -7 0
-80 24 -162 54 l-150 54 -3 161 c-2 156 -2 161 18 161 11 0 20 -4 20 -10z
m2050 -145 c0 -125 -9 -167 -24 -112 -8 30 -8 232 1 240 19 19 23 -5 23 -128z
m-40 -9 c0 -106 -3 -136 -15 -146 -13 -11 -15 4 -15 127 0 77 3 143 7 146 19
19 23 -4 23 -127z m-2817 98 c18 -4 27 -13 27 -26 0 -17 -5 -19 -32 -13 -31 7
-58 29 -58 48 0 4 8 6 18 3 9 -3 29 -8 45 -12z m2777 -21 c0 -16 -4 -35 -9
-42 -8 -12 -11 -9 -16 12 -4 15 -5 34 -1 42 9 25 26 17 26 -12z m-1673 -33 c3
-16 9 -30 14 -30 5 0 9 -56 9 -125 0 -129 -3 -138 -40 -115 -12 7 -16 37 -18
140 -2 72 -1 138 2 146 9 24 26 16 33 -16z m870 4 c15 -12 28 -25 28 -30 1 -5
7 -20 14 -34 9 -16 0 -11 -25 17 -42 44 -51 47 -154 62 l-65 10 87 -2 c71 -2
92 -6 115 -23z m-113 -4 c25 -5 52 -23 75 -47 26 -27 27 -30 6 -11 -38 34 -76
48 -123 47 l-37 0 46 -15 c45 -13 109 -70 109 -96 0 -6 -10 4 -23 23 -50 75
-158 89 -284 37 -35 -14 -63 -24 -63 -23 0 8 105 69 138 81 43 15 101 17 156
4z m-488 -30 c23 0 24 -2 24 -82 l0 -83 -40 -23 -40 -23 0 112 c0 97 2 110 16
105 9 -3 27 -6 40 -6z m-179 -163 c0 -84 -2 -155 -4 -160 -2 -4 -12 -3 -22 2
-15 9 -19 30 -24 157 -3 81 -4 151 -2 155 3 3 15 4 29 2 l24 -5 -1 -151z m345
110 c-23 -23 -42 -48 -42 -55 0 -19 70 -14 110 8 l35 19 -59 -6 c-43 -5 -57
-3 -52 5 4 7 23 12 42 12 19 0 55 5 79 11 53 13 101 0 136 -37 l24 -26 -35 21
c-47 28 -100 27 -161 -5 -28 -14 -70 -29 -93 -34 l-41 -8 52 -1 c56 -1 86 -11
146 -50 36 -23 75 -77 64 -88 -3 -2 -8 5 -12 16 -17 53 -114 98 -227 103 -52
3 -57 5 -52 23 10 31 41 71 82 105 52 42 53 37 4 -13z m2638 -202 l0 -234 -30
-16 -30 -16 0 235 c0 231 0 235 22 250 12 9 26 16 30 16 5 0 8 -106 8 -235z
m-2333 200 c32 -21 63 -74 62 -105 -1 -21 -2 -20 -9 8 -11 46 -44 78 -104 102
-50 21 -51 21 -12 16 21 -3 49 -12 63 -21z m343 -22 l25 -27 -26 22 c-38 33
-47 27 -13 -10 l29 -32 -36 29 c-20 17 -34 34 -32 38 3 4 -8 5 -23 1 -20 -5
-25 -4 -19 6 12 19 66 3 95 -27z m2110 -91 l0 -112 -35 -17 -35 -17 0 -72 c0
-40 -4 -76 -10 -79 -11 -7 -15 397 -4 408 4 3 24 5 45 4 l39 -2 0 -113z
m-2185 78 c23 -11 56 -40 75 -65 19 -25 37 -45 41 -45 4 0 7 -24 6 -52 0 -29
-2 -43 -4 -30 -4 22 -5 22 -44 -13 -35 -32 -45 -35 -98 -35 -48 0 -65 5 -99
29 -22 16 -43 35 -47 41 -4 7 -21 18 -39 26 -31 13 -31 13 -4 14 16 0 43 -14
69 -36 51 -42 78 -54 122 -54 l32 1 -34 15 c-19 8 -56 35 -82 59 -27 25 -54
45 -60 45 -7 0 -10 3 -7 6 10 9 49 -15 99 -61 56 -52 99 -64 137 -38 l27 18
-50 3 c-41 3 -60 11 -104 45 -31 23 -64 48 -76 55 -19 12 -19 12 5 6 14 -4 47
-27 74 -51 47 -42 53 -44 102 -41 29 2 50 0 47 -4 -2 -5 -2 -8 1 -8 3 0 10 8
15 19 21 39 -78 134 -169 162 l-25 7 24 1 c14 1 43 -8 66 -19z m-8 -74 c36
-33 70 -56 88 -59 l30 -4 -32 -2 c-25 -1 -43 8 -70 33 -21 18 -56 45 -77 60
-31 21 -34 26 -18 26 11 0 47 -24 79 -54z m-322 2 c14 -16 25 -35 25 -41 0 -6
-7 -1 -16 12 -24 34 -75 52 -131 46 l-48 -4 50 12 c64 17 89 12 120 -25z
m2298 -376 c-17 -12 -18 -4 -23 145 l-6 158 -2 -163 -2 -163 -42 -19 -43 -19
-5 157 -6 157 -2 -162 c-1 -90 -4 -163 -6 -163 -2 0 -12 -3 -20 -6 -15 -6 -16
11 -14 166 l3 172 65 27 c57 24 65 31 68 57 2 16 13 37 25 46 l22 17 3 -197
c2 -179 1 -198 -15 -210z m-4069 382 c14 -5 16 -28 16 -155 0 -156 -1 -159
-44 -143 -14 5 -16 28 -16 155 0 156 1 159 44 143z m1813 -36 c-3 -7 -5 -2 -5
12 0 14 2 19 5 13 2 -7 2 -19 0 -25z m-279 -4 c58 -17 132 -50 132 -59 0 -3
-13 1 -28 9 -41 21 -144 46 -190 46 -55 0 -89 -14 -125 -53 -16 -17 -25 -23
-19 -12 24 46 89 85 140 85 19 0 59 -7 90 -16z m-1024 0 c14 -5 16 -29 16
-165 l0 -159 -25 0 c-14 0 -25 1 -25 3 -5 25 -10 302 -6 312 6 16 16 18 40 9z
m-434 -143 c0 -134 -1 -139 -20 -134 -19 5 -20 14 -20 139 0 127 1 134 20 134
19 0 20 -7 20 -139z m1737 97 c-3 -7 -5 -2 -5 12 0 14 2 19 5 13 2 -7 2 -19 0
-25z m-1649 -12 c31 -13 74 -29 95 -36 l37 -12 0 -80 c0 -78 -1 -80 -22 -75
-139 32 -136 32 -158 12 l-20 -18 0 116 c0 65 2 117 5 117 3 0 31 -11 63 -24z
m282 -120 c0 -129 -1 -134 -20 -129 -19 5 -20 14 -20 124 0 102 2 119 18 128
9 6 18 11 20 11 1 0 2 -60 2 -134z m1120 102 c40 -12 90 -45 90 -59 0 -5 -9 0
-19 10 -27 27 -83 41 -166 41 -82 0 -122 -19 -148 -71 -9 -19 -17 -28 -17 -20
0 22 40 80 63 93 52 27 118 29 197 6z m341 -47 c25 -25 29 -37 29 -84 0 -53 1
-56 37 -77 l38 -22 -36 -32 c-34 -31 -40 -33 -145 -40 -60 -5 -119 -8 -131 -7
-28 1 -29 -12 -3 -30 19 -14 19 -15 -6 -43 l-25 -28 -30 33 c-16 18 -29 36
-29 39 0 4 -24 -1 -52 -11 l-53 -18 -3 27 c-2 15 -10 49 -17 75 -11 36 -12 61
-5 99 6 28 10 53 10 56 0 2 30 2 68 -1 72 -6 121 9 146 44 7 10 15 16 18 13 3
-3 21 4 39 15 52 32 113 28 150 -8z m304 -11 c-13 -21 -89 -50 -133 -50 -43 0
-105 20 -116 38 -3 5 11 1 31 -9 21 -11 50 -19 66 -19 45 0 114 20 134 40 19
19 30 19 18 0z m-636 -15 c30 -14 51 -28 48 -31 -3 -3 -16 1 -29 9 -46 30
-102 40 -142 27 -47 -15 -95 -56 -112 -95 -9 -19 -13 -24 -14 -12 0 25 19 59
43 77 76 57 124 63 206 25z m1975 -37 c9 -34 8 -36 -16 -40 -23 -3 -23 -4 -26
-200 -2 -162 -5 -197 -17 -202 -13 -5 -15 24 -15 212 l0 217 28 17 c35 23 39
22 46 -4z m239 -296 c-17 -12 -18 -8 -24 45 l-6 58 -1 -62 c-3 -104 -22 -73
-24 40 l-2 102 -5 -109 c-4 -75 -10 -111 -18 -114 -10 -3 -13 31 -13 146 0
127 2 151 16 156 30 12 33 5 37 -76 l3 -83 2 88 c2 81 4 88 25 96 l22 8 3
-141 c2 -125 1 -142 -15 -154z m-2735 119 c2 -151 1 -162 -15 -159 -14 3 -19
15 -21 63 -6 98 8 267 21 262 8 -2 13 -55 15 -166z m2412 -55 c0 -232 -1 -236
-41 -236 -5 0 -9 93 -9 220 0 198 2 220 18 229 9 6 20 11 25 11 4 0 7 -101 7
-224z m-1402 197 c-10 -2 -26 -2 -35 0 -10 3 -2 5 17 5 19 0 27 -2 18 -5z
m-1208 -134 c0 -115 -2 -130 -16 -125 -9 3 -20 6 -25 6 -5 0 -9 56 -9 125 l0
125 25 0 25 0 0 -131z m1360 100 c7 -11 9 -23 6 -27 -3 -3 -6 0 -6 6 0 6 -9
16 -20 22 -15 8 -24 6 -40 -10 -11 -11 -20 -30 -20 -42 0 -12 3 -18 6 -15 4 3
16 1 28 -5 21 -11 21 -11 2 11 -15 16 -17 24 -8 33 17 17 40 -7 48 -48 5 -25
0 -44 -20 -80 -30 -54 -29 -64 3 -30 12 13 26 46 31 72 l9 49 -4 -57 c-3 -31
-9 -68 -15 -83 -11 -28 -41 -46 -48 -27 -2 7 -8 12 -14 12 -7 0 -8 -25 -4 -72
4 -43 3 -83 -3 -98 l-10 -25 0 30 c-1 17 -8 55 -17 85 -23 81 -27 216 -7 254
34 68 81 88 103 45z m1470 -129 c0 -138 -1 -150 -20 -160 -19 -10 -20 -6 -23
127 l-3 138 -2 -141 c-2 -140 -2 -141 -27 -152 l-26 -12 3 152 3 152 40 23
c22 12 43 23 48 23 4 0 7 -67 7 -150z m-3485 50 c132 -32 275 -66 318 -75 72
-15 77 -18 77 -42 0 -21 -3 -24 -22 -19 -57 15 -348 80 -488 109 l-155 32 -3
34 c-3 29 -1 33 15 27 10 -4 126 -34 258 -66z m1029 18 c3 -29 6 -108 6 -175
0 -116 -1 -123 -20 -123 -19 0 -20 7 -20 175 0 141 3 175 14 175 9 0 15 -18
20 -52z m876 49 c0 -2 -12 -14 -27 -28 l-28 -24 24 28 c23 25 31 32 31 24z
m1469 -164 c-1 -158 -4 -172 -37 -173 -21 0 -13 307 8 320 8 5 18 10 22 10 4
0 7 -71 7 -157z m-2626 123 l57 -17 0 -95 0 -96 -27 6 c-16 3 -45 8 -65 12
l-38 6 0 105 c0 57 3 102 8 100 4 -3 33 -12 65 -21z m157 -131 c0 -148 -1
-155 -20 -155 -19 0 -20 7 -20 149 0 134 2 150 18 154 9 3 18 5 20 6 1 0 2
-69 2 -154z m2210 -60 l0 -205 -26 -10 c-14 -6 -27 -10 -30 -10 -2 0 -4 92 -4
205 0 204 0 206 23 215 12 5 25 9 30 9 4 1 7 -91 7 -204z m-2051 113 c-1 -40
-4 -111 -8 -158 -7 -78 -8 -72 -9 73 -1 99 2 157 8 157 6 0 10 -30 9 -72z m55
46 c14 -5 16 -28 16 -150 0 -137 -1 -144 -20 -144 -19 0 -20 7 -20 150 0 83 2
150 4 150 2 0 11 -3 20 -6z m1915 -16 c0 -13 -3 -17 -6 -10 -15 39 -23 -20
-23 -183 0 -154 -3 -186 -16 -199 -8 -9 -22 -16 -30 -16 -12 0 -14 30 -12 192
3 180 4 193 22 196 10 2 28 13 39 23 26 24 27 24 26 -3z m-1179 -59 c0 -49
-61 -169 -106 -208 -19 -17 -29 -31 -21 -31 21 0 84 71 106 120 20 43 21 44
21 14 0 -19 -19 -62 -52 -116 l-51 -86 -56 26 c-31 14 -81 28 -112 30 -51 4
-58 2 -64 -17 -7 -24 -27 -27 -44 -7 -14 17 -4 153 11 162 6 4 27 -12 47 -34
40 -43 41 -43 121 -20 55 16 70 35 70 87 0 42 5 52 51 101 49 50 53 52 65 35
8 -10 14 -35 14 -56z m-1934 17 c279 -58 530 -113 684 -151 143 -35 615 -128
717 -141 36 -4 53 -11 56 -23 4 -16 -2 -16 -62 -9 -150 20 -534 81 -645 104
-65 13 -120 24 -122 24 -2 0 -4 -110 -4 -245 0 -235 -1 -245 -19 -245 -52 0
-51 -6 -51 261 l0 249 -22 5 c-28 6 -437 85 -608 118 l-125 24 -3 37 c-3 32
-1 37 15 32 10 -2 95 -21 189 -40z m1314 26 c47 -10 53 -50 15 -97 l-25 -30
-2 45 -1 45 -4 -39 c-5 -43 25 -94 84 -146 19 -17 29 -30 24 -30 -5 0 -12 4
-15 9 -4 5 -25 12 -47 16 -29 5 -43 13 -46 26 -6 23 -23 25 -23 4 0 -8 -4 -15
-10 -15 -6 0 -10 45 -10 116 0 107 1 116 18 109 9 -4 28 -10 42 -13z m510 -16
c0 -2 -8 -10 -17 -17 -16 -13 -17 -12 -4 4 13 16 21 21 21 13z m1163 -393 c-9
-7 -20 -13 -23 -13 -10 0 -19 209 -12 305 4 72 7 84 26 93 21 9 21 8 24 -182
2 -171 1 -192 -15 -203z m-1278 352 c-33 -7 -69 -17 -80 -21 -11 -4 -17 -4
-13 0 13 15 83 35 118 35 28 -1 23 -3 -25 -14z m1230 -184 c1 -188 1 -190 -22
-200 -21 -10 -23 -8 -23 17 0 15 4 32 9 37 12 12 19 235 9 235 -10 0 -11 84
-1 93 24 24 28 -2 28 -182z m-1224 158 c-20 -8 -21 -11 -10 -25 8 -9 15 -12
17 -6 2 6 10 8 18 5 8 -3 17 2 20 12 9 23 24 0 24 -37 0 -32 -31 -56 -83 -65
-30 -5 -40 -1 -62 23 -38 40 -48 61 -34 70 19 11 92 33 114 33 17 0 17 -1 -4
-10z m-218 -16 c3 -5 -16 -9 -42 -10 -25 -1 -57 -5 -71 -8 -17 -4 -22 -3 -15
4 15 15 121 26 128 14z m1277 -193 c0 -110 -4 -200 -9 -200 -8 0 -22 377 -14
393 17 32 23 -16 23 -193z m-1990 155 c58 -14 113 -25 123 -25 11 0 17 -8 17
-25 0 -14 -3 -25 -7 -25 -38 2 -268 62 -274 72 -17 25 -10 41 14 34 12 -4 69
-18 127 -31z m2090 7 c0 -13 -36 -43 -42 -36 -10 9 -21 -165 -15 -236 5 -64
-2 -90 -26 -90 -4 0 -7 79 -5 175 3 191 5 195 61 195 15 0 27 -4 27 -8z
m-1434 -18 c-23 -17 -21 -17 24 -4 40 11 50 2 50 -48 0 -26 -5 -34 -27 -43
-37 -14 -69 2 -89 45 -22 45 -14 63 28 64 31 1 32 0 14 -14z m-1353 -11 c10
-6 9 -465 -2 -481 -5 -8 -21 -12 -37 -10 l-29 3 -3 253 -2 254 32 -7 c18 -4
36 -9 41 -12z m-105 -237 c1 -130 -2 -234 -7 -239 -5 -5 -18 -6 -30 -2 -21 6
-21 11 -21 241 l0 235 28 -3 27 -3 3 -229z m2900 87 c-2 -106 -6 -147 -15
-151 -10 -3 -13 23 -13 107 0 70 -5 119 -12 131 -10 15 -9 23 6 39 11 12 23
21 28 21 5 0 7 -66 6 -147z m-3008 -98 c0 -124 -3 -225 -7 -225 -5 0 -7 101
-5 225 1 124 5 225 7 225 3 0 5 -101 5 -225z m-48 73 c-4 -268 -8 -293 -10
-75 -1 119 1 217 6 217 4 0 6 -64 4 -142z m4026 -75 c-2 -162 -6 -217 -15
-221 -10 -3 -13 45 -13 217 0 191 2 221 15 221 13 0 15 -28 13 -217z m52 17
c0 -163 -2 -190 -15 -190 -13 0 -14 15 -11 93 2 50 4 136 5 190 1 57 5 97 11
97 6 0 10 -70 10 -190z m-3362 -69 c2 -227 1 -242 -15 -239 -16 3 -18 24 -23
241 -5 230 -3 250 25 243 6 -2 11 -94 13 -245z m1586 233 c9 -8 16 -30 16 -47
l0 -32 -19 31 c-11 18 -24 35 -30 38 -6 4 -11 11 -11 17 0 14 27 11 44 -7z
m466 -99 c0 -70 -4 -115 -10 -115 -5 0 -10 4 -10 8 0 5 -10 8 -22 8 -22 -1
-23 2 -26 102 -2 84 0 102 12 102 8 0 17 -8 19 -17 4 -14 5 -12 6 5 1 12 7 22
16 22 12 0 15 -19 15 -115z m-2449 95 c5 0 9 -91 9 -215 0 -124 -4 -215 -9
-215 -40 0 -41 4 -41 227 0 192 2 214 16 209 9 -3 20 -6 25 -6z m1179 -20 c36
-11 75 -20 88 -20 21 0 41 -24 29 -36 -2 -3 -46 3 -96 12 -83 16 -91 20 -91
41 0 13 1 23 3 23 1 0 31 -9 67 -20z m1394 -26 c6 -45 9 -204 4 -204 -2 0 -23
6 -48 14 l-45 13 0 98 0 98 35 13 c19 7 38 13 41 13 4 1 9 -20 13 -45z m-2506
-176 l2 -208 -25 0 -25 0 0 211 0 210 23 -3 c22 -3 22 -4 25 -210z m1906 77
c-3 -16 -18 -55 -33 -85 -21 -43 -36 -60 -73 -80 -25 -14 -75 -52 -111 -86
-50 -46 -67 -70 -72 -98 -4 -20 -11 -39 -16 -41 -4 -3 -21 14 -38 38 -16 24
-40 51 -53 60 -23 16 -23 16 20 16 95 2 188 82 257 225 25 50 48 113 51 140
l7 48 34 -53 c26 -42 32 -60 27 -84z m-1853 115 c5 0 9 -87 9 -206 l0 -205
-22 3 c-23 3 -23 4 -26 212 -2 188 -1 208 14 202 8 -3 20 -6 25 -6z m219 -211
c0 -172 -3 -220 -12 -217 -10 4 -14 59 -16 221 -2 189 0 217 13 217 13 0 15
-30 15 -221z m1038 169 c2 -21 -1 -46 -7 -55 -8 -15 -13 -11 -31 31 -16 39
-18 51 -8 58 26 16 43 4 46 -34z m-1084 10 c3 -13 5 -66 5 -118 l-2 -95 -13
90 c-7 50 -15 102 -18 118 -7 34 19 38 28 5z m-84 -189 l0 -189 -30 0 -30 0 0
193 0 194 30 -5 30 -4 0 -189z m680 170 c91 -11 227 -29 302 -41 133 -20 137
-22 149 -50 6 -16 9 -31 6 -35 -10 -9 -132 12 -446 78 -156 32 -286 59 -288
59 -2 0 -2 4 1 9 6 10 53 6 276 -20z m1176 -24 c35 -45 38 -55 36 -105 -2 -50
-29 -210 -37 -219 -2 -2 -35 23 -73 54 l-70 57 29 47 c32 49 69 157 69 199 0
14 2 23 4 21 2 -2 21 -26 42 -54z m1954 44 c0 -6 -9 -67 -19 -137 -11 -70 -23
-160 -27 -199 -6 -63 -9 -73 -26 -73 -18 0 -18 9 -16 197 l3 196 35 13 c45 16
50 16 50 3z m-530 -244 c0 -157 -4 -245 -10 -245 -6 0 -10 86 -10 238 0 210 3
252 17 252 2 0 3 -110 3 -245z m-1625 225 c3 -5 1 -10 -4 -10 -6 0 -11 5 -11
10 0 6 2 10 4 10 3 0 8 -4 11 -10z m-1292 -13 c11 -10 13 -49 9 -204 l-4 -193
-24 0 -24 0 -2 193 -3 192 -2 -187 c-3 -158 -6 -188 -18 -188 -13 0 -15 30
-15 199 l0 199 34 0 c19 0 41 -5 49 -11z m2887 -221 c0 -225 -1 -234 -20 -239
-20 -5 -20 0 -20 227 0 128 3 236 7 239 3 4 12 7 20 7 10 0 13 -46 13 -234z
m350 94 c0 -80 -4 -130 -10 -130 -6 0 -10 50 -10 130 0 80 4 130 10 130 6 0
10 -50 10 -130z m-3152 114 c19 -5 22 -13 22 -54 l0 -48 60 -7 c69 -8 83 -23
78 -83 l-3 -37 -65 0 -65 0 -3 -83 c-2 -72 -5 -83 -20 -80 -15 3 -17 23 -20
181 -2 166 -4 177 -21 177 -14 0 -18 5 -14 20 6 21 14 23 51 14z m2714 -171
c4 -245 3 -281 -2 -286 -3 -3 -30 -8 -60 -12 l-55 -7 2 179 c1 122 -1 165 -7
138 -5 -22 -9 -86 -9 -142 -1 -80 -4 -103 -15 -103 -10 0 -15 36 -22 163 l-9
162 -3 -170 c-2 -119 -6 -172 -15 -178 -13 -10 15 -5 46 8 14 6 17 2 17 -28 0
-34 -2 -36 -42 -44 l-43 -9 -3 213 c-1 117 -6 213 -10 213 -10 0 -185 -59
-279 -95 -40 -15 -73 -32 -73 -37 0 -6 6 -8 14 -5 14 6 26 -30 26 -80 0 -21
-6 -16 -45 31 -25 31 -45 57 -45 60 0 4 120 49 375 141 99 35 197 64 218 65
l37 0 2 -177z m-1809 146 c-5 -5 -34 -12 -64 -14 l-54 -5 45 13 c59 16 86 19
73 6z m80 -22 c3 -8 2 -18 -1 -24 -18 -26 -92 -45 -92 -23 0 11 -39 13 -64 4
-9 -3 -13 -10 -10 -15 12 -20 -36 -8 -50 13 -22 30 -12 38 42 32 31 -4 59 0
82 10 44 19 86 20 93 3z m1957 -2 c0 -8 -9 -15 -20 -15 -27 0 -33 -40 -28
-219 3 -145 2 -151 -17 -151 -19 0 -20 6 -17 200 l3 200 39 0 c29 0 40 -4 40
-15z m-1361 -36 c45 -16 133 -42 195 -59 260 -73 320 -108 372 -217 30 -64 45
-136 103 -505 24 -149 47 -264 59 -290 l20 -43 1 53 c1 28 6 52 11 52 6 0 10
-27 10 -61 0 -36 -4 -58 -10 -54 -5 3 -3 -10 5 -29 19 -44 19 -91 0 -229 -9
-72 -21 -120 -35 -142 -31 -49 -128 -83 -157 -54 -8 8 -33 8 -94 0 -45 -6
-156 -11 -246 -11 l-165 0 8 33 c21 95 -4 216 -55 262 l-22 19 62 13 c37 7 88
28 129 53 74 44 158 80 190 80 11 0 20 5 20 10 0 16 -60 11 -120 -10 -53 -18
-54 -18 -30 0 14 11 50 25 80 31 109 23 243 -11 324 -82 25 -22 46 -36 46 -30
0 21 -75 84 -129 109 -98 45 -262 41 -331 -8 -26 -18 -28 -19 -43 -2 -9 10
-17 45 -20 87 -3 39 -11 93 -17 120 -25 118 -25 132 5 178 16 23 52 71 80 107
29 36 63 83 77 105 25 40 51 105 45 111 -2 2 -22 -22 -44 -54 -51 -72 -145
-183 -150 -178 -14 14 43 254 83 349 18 42 30 77 28 77 -2 0 -17 -26 -33 -58
-32 -64 -74 -194 -92 -291 -10 -52 -14 -60 -23 -45 -14 25 -12 246 3 308 6 27
10 51 8 53 -3 2 -17 -27 -33 -64 -26 -62 -28 -79 -28 -183 0 -81 5 -133 18
-177 15 -52 16 -67 6 -99 l-13 -38 -33 40 c-42 48 -42 41 -4 -34 17 -33 30
-65 30 -72 0 -7 12 -34 27 -61 25 -47 26 -50 10 -86 -8 -21 -18 -46 -21 -56
-5 -16 -16 -10 -74 41 -37 33 -89 84 -117 112 -58 60 -83 72 -122 61 -15 -5
-39 -4 -52 0 -17 7 -56 0 -144 -27 -66 -20 -126 -38 -133 -41 -11 -4 -14 24
-14 148 0 85 -5 171 -10 191 -8 26 -8 44 -1 57 8 14 7 22 -4 31 -13 11 -14 10
-8 -6 6 -17 5 -17 -10 -5 -14 11 -17 11 -17 -1 0 -8 5 -19 11 -25 7 -7 13 -84
17 -205 4 -165 3 -191 -9 -182 -8 7 -29 15 -48 19 l-34 7 6 117 c4 76 14 147
31 206 l24 90 141 135 c78 75 141 141 141 148 0 24 27 11 90 -43 36 -30 68
-55 71 -55 9 0 52 276 47 309 -4 26 -2 31 11 25 9 -3 54 -19 100 -35z m-1609
-144 c0 -91 -2 -165 -4 -165 -2 0 -11 3 -20 6 -14 5 -16 29 -16 165 0 152 1
159 20 159 19 0 20 -7 20 -165z m2984 -168 c-5 -248 -4 -336 4 -341 8 -5 12 5
12 32 0 33 4 41 23 46 45 12 47 9 47 -67 l0 -73 -65 -16 -65 -15 1 101 c1 62
4 89 8 71 4 -16 7 99 7 256 -1 229 2 291 13 312 8 15 16 27 18 27 2 0 1 -150
-3 -333z m-2316 275 c9 -6 -3 -19 -40 -45 -29 -20 -66 -46 -81 -58 l-28 -21 3
53 3 54 55 12 c70 14 72 14 88 5z m389 -24 c-3 -8 -6 -5 -6 6 -1 11 2 17 5 13
3 -3 4 -12 1 -19z m-767 -38 c0 -27 -3 -50 -7 -50 -5 0 -18 -3 -30 -6 -22 -6
-23 -4 -23 50 0 56 0 56 30 56 29 0 30 -1 30 -50z m122 17 c4 -7 8 -46 8 -87
0 -59 -5 -80 -20 -100 -11 -14 -20 -35 -20 -47 0 -21 -5 -23 -47 -22 -27 0
-95 6 -153 12 -97 11 -105 14 -108 35 -2 12 0 22 5 22 14 0 175 -19 206 -25
l27 -4 0 120 0 121 48 -7 c26 -4 50 -12 54 -18z m96 -39 c-2 -38 -8 -63 -15
-66 -10 -3 -13 13 -13 56 0 32 3 62 7 65 17 18 24 2 21 -55z m256 39 c9 -16 4
-25 -39 -64 -99 -89 -260 -193 -300 -193 -28 0 -16 39 24 75 110 102 261 207
290 202 8 -1 19 -10 25 -20z m1626 -172 c0 -123 -4 -195 -10 -195 -6 0 -10 72
-10 195 0 123 4 195 10 195 6 0 10 -72 10 -195z m40 5 c0 -104 -4 -190 -9
-190 -16 0 -21 44 -21 190 0 146 5 190 21 190 5 0 9 -85 9 -190z m40 5 c0
-158 -2 -185 -15 -185 -13 0 -15 27 -15 185 0 158 2 185 15 185 13 0 15 -27
15 -185z m-1523 153 c-3 -8 -6 -5 -6 6 -1 11 2 17 5 13 3 -3 4 -12 1 -19z
m-40 -10 c-3 -8 -6 -5 -6 6 -1 11 2 17 5 13 3 -3 4 -12 1 -19z m140 0 c-3 -8
-6 -5 -6 6 -1 11 2 17 5 13 3 -3 4 -12 1 -19z m1313 -162 c0 -113 -4 -187 -10
-191 -6 -4 -11 14 -12 47 l-1 53 -6 -54 c-3 -30 -12 -56 -18 -59 -10 -3 -13
39 -13 186 0 197 0 199 43 201 16 1 17 -14 17 -183z m-1383 142 c-3 -7 -5 -2
-5 12 0 14 2 19 5 13 2 -7 2 -19 0 -25z m40 10 c-3 -8 -6 -5 -6 6 -1 11 2 17
5 13 3 -3 4 -12 1 -19z m-121 -133 c58 -34 107 -75 89 -75 -4 0 -30 16 -57 36
-69 49 -88 55 -127 38 -32 -14 -33 -13 -28 9 3 12 9 45 13 72 l8 50 19 -47
c17 -39 31 -53 83 -83z m-130 96 c-3 -5 -10 -37 -15 -73 -9 -63 -37 -146 -46
-136 -3 2 4 37 16 77 11 41 18 76 15 78 -3 3 -14 -10 -25 -28 -21 -34 -37
-128 -27 -154 5 -14 8 -14 30 2 13 10 22 21 20 24 -6 10 75 83 93 84 11 1 51
-33 97 -81 60 -63 76 -86 68 -96 -25 -31 -55 -185 -60 -314 l-5 -132 -61 -12
c-144 -27 -252 -103 -280 -197 -10 -32 20 -24 53 14 37 43 92 81 148 103 26
11 41 19 32 20 -34 1 -140 -63 -179 -107 -45 -51 -54 -48 -14 5 57 74 193 132
312 132 73 0 72 -10 -3 -29 -89 -22 -195 -80 -253 -137 -40 -41 -61 -54 -83
-54 -25 0 -29 4 -29 28 0 36 -23 68 -74 101 l-42 26 -3 86 c-3 100 8 168 54
339 59 218 55 263 -7 81 -16 -47 -40 -135 -53 -196 l-23 -110 -35 115 c-20 63
-43 141 -52 173 -9 32 -18 57 -20 55 -1 -2 1 -50 6 -108 7 -101 28 -180 64
-249 9 -18 15 -35 12 -37 -5 -6 -63 103 -82 153 -7 21 -14 31 -14 22 -1 -22
21 -84 65 -181 20 -44 34 -81 31 -84 -2 -2 -24 5 -49 16 -24 10 -71 26 -103
35 l-59 15 -29 -30 c-24 -24 -32 -28 -53 -19 -39 14 -54 11 -65 -14 -10 -22
-14 -23 -57 -16 -26 4 -73 8 -104 8 l-58 1 0 184 0 184 -30 7 c-25 5 -30 12
-30 34 0 49 -25 60 -148 67 -102 6 -112 9 -112 27 0 18 5 19 87 13 49 -3 168
-8 265 -12 l178 -6 2 -207 c3 -201 3 -205 19 -160 16 49 117 215 189 311 34
46 57 66 95 82 135 57 344 192 409 265 19 21 32 28 22 12z m131 -33 c-3 -7 -5
-2 -5 12 0 14 2 19 5 13 2 -7 2 -19 0 -25z m356 4 c-14 -38 -45 -71 -77 -82
-24 -7 -44 -27 -70 -65 -20 -30 -38 -55 -40 -55 -9 0 18 97 31 112 8 9 30 19
49 22 22 5 40 16 51 34 26 42 45 62 54 56 4 -2 5 -12 2 -22z m1031 -50 c8 -92
6 -252 -3 -252 -13 0 -31 133 -31 230 0 78 3 100 14 100 10 0 15 -22 20 -78z
m976 -181 l0 -249 -30 -11 -30 -10 -1 67 c0 37 -3 96 -6 131 -3 35 -2 119 2
187 7 131 4 123 58 133 4 0 7 -111 7 -248z m-112 -28 l-3 -258 -22 -3 -23 -3
0 260 0 261 25 0 25 0 -2 -257z m34 10 c2 -137 3 -250 1 -252 -13 -19 -18 44
-21 255 -3 156 0 244 6 244 6 0 11 -94 14 -247z m-2949 221 c46 -6 47 -7 47
-41 0 -35 0 -36 -37 -30 -21 4 -68 9 -105 13 l-68 7 0 35 0 34 58 -6 c31 -4
78 -9 105 -12z m937 -14 c-8 -5 -22 -10 -30 -10 -13 0 -13 1 0 10 8 5 22 10
30 10 13 0 13 -1 0 -10z m-1855 -30 c127 -11 325 -32 440 -45 116 -14 262 -31
325 -38 104 -11 115 -14 115 -32 0 -30 -37 -30 -382 4 -169 17 -391 37 -493
46 -312 25 -290 21 -290 62 0 32 2 34 28 29 15 -3 131 -15 257 -26z m3765
-139 c0 -160 0 -161 -54 -161 -22 0 -23 5 -29 98 -4 53 -7 120 -7 149 0 49 2
52 28 56 67 10 62 22 62 -142z m-2131 59 c30 -21 86 -89 79 -95 -2 -3 -32 23
-67 55 -61 58 -67 80 -12 40z m-604 -29 l50 -8 -60 -28 c-33 -15 -72 -39 -87
-53 l-28 -26 0 31 c0 17 -3 45 -6 62 l-6 31 43 -1 c24 0 67 -4 94 -8z m2573
-28 c-2 -13 -33 -21 -148 -41 -80 -13 -221 -43 -315 -67 -164 -41 -170 -41
-173 -22 -2 11 2 23 8 27 24 15 542 118 598 119 26 1 33 -3 30 -16z m-3588
-278 l0 -285 -35 0 -34 0 -3 278 c-2 152 -2 280 0 285 2 4 19 7 38 7 l34 0 0
-285z m110 -20 l0 -265 -34 0 -34 0 -4 258 c-2 141 -2 260 0 265 2 4 19 7 38
7 l34 0 0 -265z m-318 103 c1 -84 2 -200 2 -258 l1 -105 -47 -3 -48 -3 0 260
0 261 45 0 45 0 2 -152z m92 146 c14 -5 16 -38 16 -260 l0 -254 -40 0 -40 0 0
260 0 260 24 0 c13 0 31 -3 40 -6z m906 -112 c0 -83 -2 -90 -35 -140 -20 -28
-37 -52 -38 -52 -1 0 -1 63 1 140 l3 140 35 0 34 0 0 -88z m68 51 c2 -11 -11
-43 -27 -70 l-31 -48 0 73 0 73 28 -3 c19 -2 28 -9 30 -25z m-668 -223 c0
-198 -2 -230 -15 -230 -13 0 -15 32 -15 230 0 198 2 230 15 230 13 0 15 -32
15 -230z m70 -5 l0 -225 -25 0 -25 0 0 225 0 225 25 0 25 0 0 -225z m50 -6 c0
-188 -2 -219 -15 -219 -13 0 -15 31 -15 218 0 120 3 222 6 225 19 19 24 -24
24 -224z m3223 115 l-6 -116 31 7 c25 5 32 3 32 -8 0 -16 -56 -40 -72 -31 -5
3 -20 3 -32 0 -21 -5 -25 -14 -31 -71 -5 -54 -10 -65 -25 -65 -10 0 -25 -3
-34 -6 -14 -5 -16 13 -16 165 0 107 -4 171 -10 171 -6 0 -10 -63 -10 -169 0
-192 6 -181 -92 -181 -36 0 -48 4 -48 15 0 10 11 15 38 16 l37 2 -40 6 c-31 5
-40 10 -40 26 0 16 8 21 42 23 39 3 42 1 46 -25 4 -28 4 -28 6 3 0 20 -5 34
-14 38 -12 4 -15 31 -15 151 l0 145 53 1 c28 1 77 4 107 9 111 15 101 26 93
-106z m-3165 -117 c2 -189 0 -217 -13 -217 -13 0 -15 30 -15 221 0 172 3 220
13 217 9 -4 13 -59 15 -221z m2774 36 c1 -104 3 -162 5 -131 l4 58 39 6 40 7
0 108 c0 90 3 109 15 109 13 0 15 -22 15 -140 l0 -140 -35 0 -35 0 0 -50 c0
-49 -1 -50 -29 -50 -16 0 -36 -3 -45 -6 -14 -5 -16 16 -16 198 0 113 3 208 7
211 3 4 12 7 20 7 10 0 13 -39 15 -187z m-2724 -51 c2 -197 2 -202 -18 -202
-19 0 -20 6 -20 206 0 190 1 205 18 202 15 -3 17 -22 20 -206z m2636 3 c4 -91
5 -169 1 -175 -4 -6 -12 -7 -23 -1 -20 11 -75 328 -58 335 6 2 25 5 42 5 l31
1 7 -165z m-2584 -25 c0 -173 -1 -180 -20 -180 -19 0 -20 7 -20 180 0 173 1
180 20 180 19 0 20 -7 20 -180z m3110 -120 c0 -17 -7 -20 -40 -20 -46 0 -52
14 -12 28 41 16 52 14 52 -8z m94 6 c-18 -14 -19 -27 -17 -233 1 -120 5 -244
8 -275 5 -46 3 -58 -8 -58 -11 0 -15 34 -20 167 -4 91 -7 222 -7 290 l0 123
32 0 c30 0 31 -1 12 -14z m-1489 -76 l59 -65 -57 54 -56 55 -168 -48 c-159
-46 -292 -85 -481 -142 -76 -23 -84 -28 -100 -62 -41 -87 -236 -113 -271 -36
l-11 26 26 -21 c21 -16 41 -21 91 -21 78 0 127 19 146 57 8 15 24 36 34 46 25
22 165 69 453 153 124 36 232 69 240 74 19 11 24 7 95 -70z m-195 59 c-14 -6
-124 -39 -245 -74 -121 -35 -229 -67 -240 -70 -11 -3 -7 1 9 11 16 9 106 39
200 66 94 28 189 56 211 63 22 7 51 13 65 13 l25 1 -25 -10z m2000 -189 l0
-200 -30 0 c-26 0 -30 4 -31 28 -8 386 -9 372 39 372 l22 0 0 -200z m-90 0 l0
-190 -25 0 -25 0 0 184 c0 138 3 186 13 189 36 15 37 11 37 -183z m-2941 155
c98 -31 155 -55 148 -61 -3 -3 -22 2 -42 11 -34 13 -91 30 -178 49 -15 4 -25
11 -22 16 8 13 2 14 94 -15z m2871 -160 c0 -149 -3 -185 -14 -185 -17 0 -26
83 -26 246 0 117 1 124 20 124 19 0 20 -7 20 -185z m-250 156 c0 -21 -19 -24
-250 -36 -58 -3 -135 -8 -172 -12 -64 -5 -68 -4 -68 15 0 28 17 32 133 33 85
1 272 11 340 17 11 1 17 -5 17 -17z m-2555 -47 c112 -45 211 -131 190 -164 -9
-14 -25 -12 -25 3 0 37 -77 83 -251 151 -60 24 -107 45 -104 48 10 10 131 -15
190 -38z m2043 19 c3 -19 -1 -23 -22 -23 -21 0 -26 5 -26 26 0 21 4 25 23 22
14 -2 23 -11 25 -25z m-2117 -64 c166 -67 243 -109 227 -124 -3 -4 -19 3 -35
14 -16 12 -109 55 -207 96 -98 41 -181 76 -184 79 -17 18 43 -2 199 -65z
m-281 40 c-6 -11 -17 -22 -23 -24 -7 -2 -222 -6 -480 -7 l-467 -3 0 28 0 27
490 0 491 0 -11 -21z m3024 -26 c3 -16 10 -109 16 -208 12 -199 16 -229 30
-220 12 8 231 -15 250 -26 21 -12 -44 -11 -155 1 -102 12 -136 17 -141 23 -6
5 -21 195 -28 340 -5 97 -4 117 8 117 8 0 17 -12 20 -27z m56 -194 c0 -122 -4
-218 -9 -215 -5 3 -11 79 -15 168 -4 90 -9 187 -12 216 -6 48 -5 52 15 52 21
0 21 -3 21 -221z m-621 99 c0 -93 -4 -125 -24 -183 -20 -57 -24 -63 -20 -30 3
22 5 104 5 183 0 135 1 142 20 142 19 0 20 -6 19 -112z m154 105 c7 -11 -42
-394 -53 -420 -5 -13 -18 -23 -30 -23 -19 0 -20 6 -20 218 0 120 3 222 7 225
9 9 91 9 96 0z m-2843 -42 c0 -16 -11 -21 -67 -30 -105 -16 -264 -33 -269 -28
-3 2 37 12 88 21 51 9 125 25 163 36 89 23 85 23 85 1z m1845 -1 c10 -11 16
-20 13 -20 -3 0 -13 9 -23 20 -10 11 -16 20 -13 20 3 0 13 -9 23 -20z m1048
-192 c-4 -112 -9 -183 -11 -158 -5 57 9 373 15 366 3 -2 1 -96 -4 -208z m177
138 l0 -75 -47 -6 c-72 -10 -74 -13 -10 -14 l57 -1 0 -119 0 -118 -77 -7 c-42
-3 -78 -4 -81 -2 -2 3 -1 97 3 210 l8 206 73 0 74 0 0 -74z m80 -136 l0 -210
-25 0 -25 0 0 210 0 210 25 0 25 0 0 -210z m-3078 108 l2 -63 3 60 4 60 49 -3
c28 -2 50 -7 50 -11 0 -4 -15 -32 -34 -63 -34 -57 -58 -136 -37 -123 7 3 11
-3 11 -15 0 -12 -20 -42 -45 -68 l-45 -47 0 162 c0 159 2 169 33 172 4 1 8
-27 9 -61z m1408 41 c61 -37 173 -121 217 -162 36 -34 46 -39 78 -35 31 4 40
0 65 -29 51 -58 66 -168 31 -233 -18 -34 -21 -35 -107 -48 -133 -19 -210 -11
-344 34 -95 32 -116 43 -118 61 -3 20 1 20 114 -18 65 -22 122 -38 128 -36 12
5 -31 25 -144 67 -162 60 -270 123 -270 155 0 23 31 18 111 -19 87 -40 245
-91 309 -100 37 -5 6 13 -162 96 -154 76 -208 108 -208 121 0 10 7 20 16 24 9
3 95 -20 193 -52 179 -60 214 -66 235 -45 8 10 6 11 -13 5 -21 -6 -23 -4 -19
13 6 23 -33 64 -124 130 -64 47 -72 57 -64 77 8 21 35 18 76 -6z m520 -97 c0
-10 -41 23 -80 64 l-45 47 63 -54 c34 -29 62 -55 62 -57z m-2065 -121 c-15
-14 -25 32 -25 116 0 64 4 93 13 96 9 3 13 -23 15 -101 1 -58 0 -107 -3 -111z
m65 50 c0 -158 -7 -200 -27 -169 -9 15 -18 301 -9 323 3 8 12 15 21 15 13 0
15 -24 15 -169z m-96 -69 c-2 -5 -529 -72 -566 -72 -26 0 -38 5 -38 14 0 16
11 18 205 43 77 9 132 19 123 21 -9 2 -78 -4 -152 -12 -182 -21 -176 -22 -176
14 0 34 -19 29 245 60 99 11 218 26 265 33 l85 12 5 -55 c3 -30 5 -56 4 -58z
m1010 5 c27 -31 47 -59 44 -62 -3 -3 -32 25 -64 61 -32 37 -52 65 -44 62 7 -2
36 -30 64 -61z m1778 -89 c-5 -5 -16 -6 -25 -2 -14 5 -14 11 6 51 l22 46 3
-43 c2 -24 -1 -47 -6 -52z m-2752 42 c0 -23 7 -22 -310 -55 -135 -14 -264 -28
-287 -31 -38 -6 -43 -4 -43 13 0 17 25 22 283 54 350 45 357 45 357 19z m847
-27 c4 -9 -1 -37 -10 -62 -10 -29 -13 -47 -6 -49 6 -3 5 -10 -3 -20 -20 -23
32 6 149 83 54 36 106 65 116 65 26 0 32 -28 12 -50 -17 -19 -19 -19 -32 -2
-13 16 -14 15 -9 -8 4 -21 -3 -31 -47 -63 -61 -44 -143 -117 -132 -117 4 0 81
34 171 76 153 70 202 84 206 59 3 -15 -81 -75 -206 -149 -61 -36 -120 -72
-131 -80 -53 -40 83 21 221 99 142 81 191 100 182 73 -3 -7 -33 -33 -69 -57
-35 -24 -89 -63 -119 -86 -30 -23 -79 -54 -107 -69 -29 -14 -53 -31 -53 -36 0
-27 55 1 170 85 83 60 219 145 233 145 4 0 7 -7 7 -15 0 -8 -44 -44 -97 -80
-54 -36 -127 -89 -163 -119 -134 -113 -239 -155 -341 -136 -30 6 -65 18 -78
28 -38 28 -65 89 -66 147 0 45 5 56 47 110 30 38 58 91 77 144 35 97 62 126
78 84z m-847 -28 c0 -14 -1 -25 -3 -25 -10 0 -472 -62 -554 -75 -57 -8 -105
-15 -108 -15 -3 0 -5 11 -5 25 0 17 7 26 23 30 12 3 157 21 322 41 165 19 302
37 304 40 11 11 21 1 21 -21z m2760 -20 c0 -10 -10 -15 -27 -15 -14 0 -23 -3
-19 -7 4 -4 121 -6 259 -5 139 1 299 -2 357 -8 58 -6 143 -13 190 -16 101 -7
128 -14 85 -24 -51 -13 -105 -11 -105 3 0 9 -2 9 -9 -1 -6 -11 -39 -12 -167
-5 -87 4 -238 5 -334 2 -128 -4 -191 -2 -234 8 -76 17 -76 18 -63 53 9 23 17
30 39 30 18 0 28 -5 28 -15z m-2030 -84 c0 -12 -28 -22 -34 -12 -3 5 -3 11 1
15 9 9 33 7 33 -3z m791 -78 c56 -20 99 -27 176 -31 97 -4 103 -5 119 -31 9
-14 26 -34 38 -43 l21 -18 -21 0 c-41 0 -230 -20 -442 -47 -116 -14 -215 -23
-218 -20 -13 13 51 81 110 116 33 20 74 50 90 67 17 17 36 32 42 33 6 0 44
-11 85 -26z m953 -4 c-9 -16 -103 -56 -187 -80 -53 -15 -113 -22 -232 -26
l-160 -6 21 24 c12 13 27 34 33 47 11 21 16 22 164 23 124 0 215 7 360 28 5 0
5 -4 1 -10z m-2589 -316 l0 -296 -29 -8 c-17 -5 -32 -6 -34 -4 -3 3 -7 136
-10 296 -5 315 -6 309 48 309 l25 0 0 -297z m2010 287 c11 -17 -5 -32 -21 -19
-8 6 -14 15 -14 20 0 12 27 11 35 -1z m-1979 -294 c-3 -154 -6 -283 -8 -286
-1 -3 -5 123 -8 280 -3 157 -4 288 -2 293 2 4 8 4 14 1 7 -5 9 -96 4 -288z
m2706 262 l113 -1 -80 -10 c-97 -11 -106 -11 -172 -2 -29 4 -50 12 -47 17 4 6
22 7 40 3 19 -3 85 -6 146 -7z m-3202 -348 l0 -329 -37 -10 c-21 -6 -44 -11
-50 -11 -10 0 -13 74 -13 334 l0 335 28 4 c15 2 37 5 50 6 l22 1 0 -330z m380
56 c0 -184 -4 -277 -11 -281 -6 -4 -12 -5 -13 -4 -2 2 -6 129 -10 282 -6 272
-6 277 14 277 20 0 20 -7 20 -274z m3098 233 c40 -6 71 -14 69 -16 -5 -4 -328
26 -342 33 -20 9 202 -5 273 -17z m-3150 -261 l-2 -273 -6 265 c-6 248 -6 280
6 280 2 0 3 -123 2 -272z m-210 -39 l2 -286 -42 -11 c-23 -6 -45 -9 -48 -6 -3
3 -7 135 -9 294 l-3 288 28 5 c75 11 69 35 72 -284z m2552 260 c0 -33 -21
-108 -34 -118 -6 -5 -72 -14 -146 -21 -74 -6 -229 -24 -345 -41 -115 -16 -213
-29 -217 -29 -5 0 -8 33 -8 74 l0 74 88 15 c120 22 326 43 592 61 25 1 51 3
58 4 6 1 12 -7 12 -19z m-2475 -101 c3 -62 5 -183 3 -268 -3 -147 -4 -155 -23
-155 -19 0 -20 8 -23 255 -1 140 0 260 3 267 2 7 11 13 19 13 11 0 15 -25 21
-112z m2589 8 c45 -24 128 -61 185 -81 121 -44 166 -79 182 -138 7 -25 11
-112 10 -212 -1 -257 19 -538 55 -735 2 -14 -12 7 -31 46 -41 82 -60 163 -75
329 -13 146 -38 255 -84 370 -33 81 -82 175 -91 175 -2 0 7 -25 21 -56 49
-110 68 -201 68 -324 1 -89 -3 -126 -17 -163 -10 -26 -22 -45 -27 -42 -4 2
-13 25 -19 50 -16 65 -55 149 -109 235 -31 49 -48 88 -49 113 -4 52 -55 146
-109 199 -32 32 -46 55 -54 91 -9 45 -9 49 16 70 19 17 27 36 31 70 3 26 8 47
11 47 3 0 41 -20 86 -44z m-1107 -30 c-8 -12 -33 -28 -55 -34 -60 -18 -195
-33 -205 -23 -5 5 15 11 47 15 58 8 183 63 207 93 13 15 14 14 17 -6 2 -12 -3
-32 -11 -45z m221 -23 l-3 -68 -65 -6 c-36 -3 -71 -9 -78 -13 -15 -9 -15 18 1
63 9 26 25 40 67 62 80 41 81 40 78 -38z m-1208 -129 c0 -74 -4 -113 -10 -109
-6 4 -10 55 -10 121 0 74 4 113 10 109 6 -4 10 -55 10 -121z m1854 49 c6 -44
4 -53 -9 -53 -12 0 -15 13 -15 62 0 73 14 67 24 -9z m-1804 -67 c0 -75 -2 -82
-20 -83 -19 -2 -20 4 -20 99 0 100 0 101 20 83 17 -15 20 -31 20 -99z m1650
68 c0 -27 -4 -43 -10 -39 -5 3 -10 24 -10 46 0 21 5 39 10 39 6 0 10 -21 10
-46z m-1620 -70 c0 -43 -4 -74 -10 -74 -6 0 -10 34 -10 81 0 51 4 78 10 74 6
-3 10 -40 10 -81z m50 1 c0 -54 -3 -63 -20 -68 -19 -5 -20 0 -20 68 0 68 1 73
20 68 17 -5 20 -14 20 -68z m17 -27 c-2 -18 -4 -6 -4 27 0 33 2 48 4 33 2 -15
2 -42 0 -60z m33 27 c0 -24 -4 -47 -10 -50 -6 -4 -10 15 -10 50 0 35 4 54 10
50 6 -3 10 -26 10 -50z m48 6 c3 -31 -9 -50 -30 -51 -5 0 -8 21 -8 46 0 38 3
45 18 42 11 -2 18 -14 20 -37z m324 13 c-50 -23 -72 -24 -72 -4 0 12 50 28 90
28 l35 0 -53 -24z m-257 -14 c0 -18 -6 -26 -21 -28 -17 -2 -22 3 -26 28 -4 28
-3 31 21 28 20 -2 26 -9 26 -28z m85 11 c0 -12 -8 -16 -42 -25 -24 -5 -28 -3
-28 14 0 16 7 20 35 20 19 0 35 -4 35 -9z m950 -120 c0 -107 -9 -136 -45 -145
-15 -4 -25 -9 -23 -12 3 -2 17 0 32 6 24 9 26 8 22 -13 -3 -12 -7 -58 -10
-103 -4 -44 -17 -116 -29 -159 l-24 -78 -22 79 c-31 113 -45 269 -37 396 9
119 4 114 94 117 l42 1 0 -89z m-1250 -286 c-23 -25 -53 -31 -97 -19 -13 4
-23 10 -23 14 0 7 131 39 139 33 3 -2 -6 -14 -19 -28z m-48 -55 l57 -11 -37
-75 c-23 -48 -42 -74 -53 -74 -20 0 -76 61 -90 97 -10 27 -12 86 -3 95 3 4 20
0 37 -7 18 -7 58 -18 89 -25z m-37 -208 c-3 -8 -5 -20 -5 -28 0 -8 -7 -14 -15
-14 -15 0 -45 49 -45 74 0 14 4 13 35 -2 21 -10 33 -22 30 -30z"/>
<path d="M1793 4095 c0 -22 2 -30 4 -17 2 12 2 30 0 40 -3 9 -5 -1 -4 -23z"/>
<path d="M2046 4092 c-4 -29 -5 -56 -2 -59 12 -13 17 6 14 58 l-3 54 -9 -53z"/>
<path d="M4714 3800 c0 -58 1 -81 3 -52 2 28 2 76 0 105 -2 28 -3 5 -3 -53z"/>
<path d="M4682 3760 l1 -125 10 103 c6 71 6 111 -1 125 -8 17 -10 -9 -10 -103z"/>
<path d="M4712 3650 c0 -19 2 -27 5 -17 2 9 2 25 0 35 -3 9 -5 1 -5 -18z"/>
<path d="M2844 3595 c-3 -14 -3 -33 1 -42 6 -16 8 -16 26 6 25 31 25 61 -1 61
-13 0 -22 -9 -26 -25z"/>
<path d="M1688 3554 c-2 -42 0 -78 5 -81 4 -2 7 32 7 76 0 45 -2 81 -4 81 -3
0 -6 -34 -8 -76z"/>
<path d="M2460 3320 c0 -5 7 -10 15 -10 8 0 15 5 15 10 0 6 -7 10 -15 10 -8 0
-15 -4 -15 -10z"/>
<path d="M3381 3314 c0 -11 3 -14 6 -6 3 7 2 16 -1 19 -3 4 -6 -2 -5 -13z"/>
<path d="M3393 3220 c0 -25 2 -35 4 -22 2 12 2 32 0 45 -2 12 -4 2 -4 -23z"/>
<path d="M3523 3240 c0 -41 2 -58 4 -37 2 20 2 54 0 75 -2 20 -4 3 -4 -38z"/>
<path d="M4232 3225 c-86 -27 -100 -37 -46 -28 41 6 124 38 124 47 0 7 8 9
-78 -19z"/>
<path d="M4286 3185 c-3 -9 -5 -85 -4 -168 l2 -152 5 165 c4 91 6 166 5 168
-1 2 -4 -4 -8 -13z"/>
<path d="M2575 2380 c-8 -12 20 -24 35 -15 6 3 8 11 5 16 -8 12 -32 12 -40 -1z"/>
<path d="M3542 2263 c-24 -14 -41 -28 -38 -30 4 -4 86 46 86 53 0 6 -2 5 -48
-23z"/>
<path d="M3635 2251 c-61 -30 -181 -119 -172 -128 3 -2 41 19 84 48 43 29 101
66 128 81 66 37 36 36 -40 -1z"/>
<path d="M3550 2140 c-17 -5 5 -8 65 -8 59 0 83 2 70 8 -25 11 -102 11 -135 0z"/>
<path d="M3788 2004 c58 -50 95 -115 90 -159 -5 -40 8 -46 22 -10 18 47 -24
126 -93 176 -56 41 -69 36 -19 -7z"/>
<path d="M4574 3035 c0 -49 1 -71 3 -48 2 23 2 64 0 90 -2 26 -3 8 -3 -42z"/>
<path d="M2448 2203 c7 -3 16 -2 19 1 4 3 -2 6 -13 5 -11 0 -14 -3 -6 -6z"/>
<path d="M1683 2585 c0 -38 2 -53 4 -32 2 20 2 52 0 70 -2 17 -4 1 -4 -38z"/>
<path d="M4361 2540 c0 -36 3 -71 8 -79 5 -8 7 13 4 55 -6 93 -11 103 -12 24z"/>
<path d="M3944 2440 c3 -58 9 -116 15 -130 12 -32 3 160 -10 205 -6 20 -7 -4
-5 -75z"/>
<path d="M4151 1993 c1 -147 15 -132 21 23 2 71 0 98 -9 101 -10 4 -13 -25
-12 -124z"/>
<path d="M1483 2025 c0 -22 2 -30 4 -17 2 12 2 30 0 40 -3 9 -5 -1 -4 -23z"/>
<path d="M1033 1853 c9 -2 23 -2 30 0 6 3 -1 5 -18 5 -16 0 -22 -2 -12 -5z"/>
<path d="M2087 1527 l-18 -32 21 21 c13 12 21 27 19 33 -2 6 -12 -4 -22 -22z"/>
<path d="M3307 1484 c-4 -4 -4 -10 -2 -14 6 -10 45 0 45 11 0 10 -33 12 -43 3z"/>
<path d="M1453 1075 c0 -22 2 -30 4 -17 2 12 2 30 0 40 -3 9 -5 -1 -4 -23z"/>
<path d="M2071 4716 c7 -8 601 -177 605 -173 5 5 -72 28 -364 113 -207 59
-252 71 -241 60z"/>
<path d="M4073 4540 c0 -36 2 -50 4 -32 2 17 2 47 0 65 -2 17 -4 3 -4 -33z"/>
<path d="M2705 4530 c11 -5 27 -9 35 -9 9 0 8 4 -5 9 -11 5 -27 9 -35 9 -9 0
-8 -4 5 -9z"/>
<path d="M1625 1811 c-16 -8 -9 -10 29 -10 48 -1 193 -51 263 -91 25 -15 31
-16 26 -4 -3 8 -46 36 -96 61 -94 47 -179 64 -222 44z"/>
<path d="M1703 1620 c-18 -11 -33 -22 -33 -24 0 -2 21 2 47 10 25 8 69 14 97
14 37 0 47 3 36 10 -27 17 -112 11 -147 -10z"/>
<path d="M3995 1559 c33 -5 141 -31 240 -59 98 -27 188 -50 199 -49 12 0 -15
11 -59 24 -44 12 -136 39 -203 59 -85 24 -142 36 -180 35 l-57 -1 60 -9z"/>
<path d="M4341 1546 c12 -13 116 -44 230 -70 104 -23 494 -86 534 -86 12 0 15
8 13 32 l-3 33 -85 12 c-47 6 -152 19 -235 28 -220 23 -407 46 -435 52 -14 3
-22 3 -19 -1z"/>
<path d="M4690 1285 c-115 -16 -290 -51 -322 -65 -18 -8 -13 -9 22 -4 70 9
424 74 429 80 6 6 -22 4 -129 -11z"/>
<path d="M1870 1200 c0 -5 5 -10 11 -10 5 0 7 5 4 10 -3 6 -8 10 -11 10 -2 0
-4 -4 -4 -10z"/>
<path d="M1908 783 c7 -3 16 -2 19 1 4 3 -2 6 -13 5 -11 0 -14 -3 -6 -6z"/>
<path d="M2100 635 c0 -3 37 -23 82 -46 45 -23 100 -52 122 -66 35 -20 37 -21
16 -3 -43 38 -220 130 -220 115z"/>
<path d="M2350 496 c0 -2 8 -10 18 -17 15 -13 16 -12 3 4 -13 16 -21 21 -21
13z"/>
<path d="M2272 314 c-143 -21 -297 -52 -290 -59 4 -5 214 22 316 40 94 16 162
33 162 40 0 7 -15 5 -188 -21z"/>
<path d="M1403 143 c-41 -54 -83 -121 -83 -133 0 -25 22 -5 46 42 15 29 37 70
50 90 31 49 24 49 -13 1z"/>
<path d="M1906 83 c-9 -18 -21 -44 -26 -58 -9 -22 -7 -25 15 -25 21 0 25 6 30
44 10 62 2 78 -19 39z"/>
</g>
</svg>